# xmcd CD database file
#
# Track frame offsets:
#	150
#	14712
#	30625
#	42787
#	61525
#	76050
#	98650
#	110812
#	122975
#	144737
#	155900
#	168700
#
# Disc length: 2564 seconds
#
# Revision: 0
# Processed by: cddbd v1.5PL3 Copyright (c) Steve Scherf et al.
# Submitted via: CDex 1.51
#
DISCID=a10a020c
DTITLE=K.J. Corye - All Hearts Need
DYEAR=1994
DGENRE=Country
TTITLE0=Kick me (While the Kickin's Good)
TTITLE1=All Hearts Need
TTITLE2=He Just Can't Dance
TTITLE3=If I Fall
TTITLE4=I Ain't No Jukebox
TTITLE5=Ode to Billie Joe
TTITLE6=Too Far Gone
TTITLE7=Fool Around
TTITLE8=The Part of You I miss
TTITLE9=Midnight
TTITLE10=Emerald Pie
TTITLE11=Justice
EXTD=YEAR: 1994
EXTT0=
EXTT1=
EXTT2=
EXTT3=
EXTT4=
EXTT5=
EXTT6=
EXTT7=
EXTT8=
EXTT9=
EXTT10=
EXTT11=
PLAYORDER=
